<svg width="20" height="15" viewBox="0 0 20 15" fill="none" xmlns="http://www.w3.org/2000/svg">
<path d="M16.3782 2.46324C16.2274 1.93763 15.8989 1.47377 15.4435 1.1431C14.9881 0.812428 14.4309 0.633298 13.8579 0.633301H9.26937C8.8151 0.633323 8.36867 0.745968 7.97417 0.96012C7.57966 1.17427 7.25071 1.48253 7.01977 1.85446L4.63622 5.68957L2.56332 6.18273C1.99808 6.31709 1.4963 6.62724 1.13774 7.06388C0.779192 7.50052 0.584448 8.03858 0.584473 8.59254V10.1172C0.584299 10.5897 0.725872 11.0524 0.992579 11.4511C1.25929 11.8498 1.64006 12.1679 2.09022 12.368C2.2444 12.9924 2.60936 13.5517 3.12933 13.9603C3.64931 14.3689 4.29569 14.6044 4.96971 14.6308C5.64372 14.6572 6.3083 14.4731 6.86188 14.1066C7.41547 13.74 7.82761 13.2113 8.03532 12.6011H12.6086C12.8262 13.2366 13.2653 13.7826 13.8534 14.1489C14.4415 14.5151 15.1433 14.6798 15.8431 14.6155C16.5429 14.5513 17.1986 14.2621 17.7022 13.7957C18.2057 13.3293 18.5269 12.7135 18.6126 12.0501C18.9163 11.8175 19.1613 11.5231 19.3295 11.1886C19.4977 10.8541 19.5848 10.488 19.5845 10.1172V8.08492C19.5844 7.47752 19.3502 6.8912 18.9262 6.43684C18.5023 5.98247 17.9179 5.69156 17.2836 5.61911L16.3782 2.46324ZM8.14837 11.2462C8.04318 10.6006 7.71446 10.0068 7.21426 9.55878C6.71405 9.1108 6.07096 8.83429 5.38681 8.77301C4.70267 8.71174 4.01658 8.86922 3.43719 9.2205C2.8578 9.57179 2.41822 10.0968 2.18807 10.7124C2.0711 10.5338 2.00922 10.3276 2.00947 10.1172V8.59254C2.00947 8.07409 2.37997 7.62247 2.90912 7.49692L5.18627 6.95589H16.972C17.6275 6.95589 18.1595 7.4617 18.1595 8.08492V10.1325C17.8244 9.62646 17.3348 9.22974 16.7561 8.99548C16.1774 8.76122 15.5372 8.70058 14.9213 8.82169C14.3053 8.9428 13.743 9.23988 13.3095 9.67317C12.876 10.1065 12.592 10.6553 12.4956 11.2462H8.14837ZM11.0345 5.60105H6.34717L8.24717 2.54272C8.35218 2.3738 8.50168 2.23381 8.68093 2.13656C8.86018 2.03931 9.06299 1.98816 9.26937 1.98814H11.0345V5.60105ZM12.4595 1.98814H13.8579C14.1184 1.98813 14.3716 2.06955 14.5787 2.21987C14.7857 2.3702 14.935 2.58107 15.0036 2.82001L15.8016 5.60105H12.4595V1.98814ZM15.547 10.1172C15.9879 10.1172 16.4108 10.2837 16.7225 10.5801C17.0343 10.8766 17.2095 11.2786 17.2095 11.6978C17.2095 12.117 17.0343 12.5191 16.7225 12.8155C16.4108 13.1119 15.9879 13.2785 15.547 13.2785C15.1061 13.2785 14.6832 13.1119 14.3714 12.8155C14.0596 12.5191 13.8845 12.117 13.8845 11.6978C13.8845 11.2786 14.0596 10.8766 14.3714 10.5801C14.6832 10.2837 15.1061 10.1172 15.547 10.1172ZM6.75947 11.6978C6.75947 12.117 6.58432 12.5191 6.27254 12.8155C5.96076 13.1119 5.53789 13.2785 5.09697 13.2785C4.65605 13.2785 4.23319 13.1119 3.92141 12.8155C3.60963 12.5191 3.43447 12.117 3.43447 11.6978C3.43447 11.2786 3.60963 10.8766 3.92141 10.5801C4.23319 10.2837 4.65605 10.1172 5.09697 10.1172C5.53789 10.1172 5.96076 10.2837 6.27254 10.5801C6.58432 10.8766 6.75947 11.2786 6.75947 11.6978Z" fill="#3C6AB2"/>
</svg>
