<svg width="20" height="20" viewBox="0 0 20 20" fill="none" xmlns="http://www.w3.org/2000/svg">
<path fill-rule="evenodd" clip-rule="evenodd" d="M1.58546 0.792725C1.14765 0.792725 0.792725 1.14765 0.792725 1.58546C0.792725 2.02328 1.14765 2.3782 1.58546 2.3782H3.46316L4.33397 4.20673L5.39957 10.3102C4.1558 10.3874 3.17094 11.4206 3.17094 12.6838C3.17094 13.5259 3.6086 14.2658 4.26888 14.6883C4.07455 15.033 3.96368 15.4309 3.96368 15.8547C3.96368 17.1682 5.02844 18.233 6.34189 18.233C7.65534 18.233 8.7201 17.1682 8.7201 15.8547C8.7201 15.5768 8.67242 15.31 8.58478 15.062H12.8191C12.7315 15.31 12.6838 15.5768 12.6838 15.8547C12.6838 17.1682 13.7486 18.233 15.062 18.233C16.3755 18.233 17.4402 17.1682 17.4402 15.8547C17.4402 14.5413 16.3755 13.4765 15.062 13.4765H5.54915C5.11133 13.4765 4.75641 13.1216 4.75641 12.6838C4.75641 12.246 5.11133 11.8911 5.54915 11.8911H6.33071C6.36556 11.8915 6.40083 11.8897 6.43634 11.8854L15.2051 10.8332C16.2257 10.7107 17.0521 9.9463 17.2537 8.9383L18.2176 4.11915C18.2641 3.88626 18.2039 3.64476 18.0533 3.46109C17.9027 3.27742 17.6777 3.17094 17.4402 3.17094H5.59678L4.6794 1.24461C4.54793 0.968562 4.26943 0.792725 3.96368 0.792725H1.58546ZM15.062 15.062C14.6242 15.062 14.2693 15.4169 14.2693 15.8547C14.2693 16.2926 14.6242 16.6475 15.062 16.6475C15.4998 16.6475 15.8547 16.2926 15.8547 15.8547C15.8547 15.4169 15.4998 15.062 15.062 15.062ZM5.54915 15.8547C5.54915 15.4169 5.90407 15.062 6.34189 15.062C6.77971 15.062 7.13463 15.4169 7.13463 15.8547C7.13463 16.2926 6.77971 16.6475 6.34189 16.6475C5.90407 16.6475 5.54915 16.2926 5.54915 15.8547ZM6.99357 10.2217L6.0394 4.75641H16.4732L15.699 8.62736C15.6318 8.96336 15.3564 9.21815 15.0162 9.25898L6.99357 10.2217Z" fill="#3C6AB2"/>
</svg>
