<svg width="21" height="21" viewBox="0 0 21 21" fill="none" xmlns="http://www.w3.org/2000/svg">
<path d="M10.5124 2.62357C5.70161 2.62357 1.76236 6.12445 1.76236 10.4986C1.76236 11.9187 2.18586 13.2942 2.96548 14.4903C3.08973 14.6819 3.19824 15.1151 3.12912 15.5298C3.05912 15.9586 2.8351 16.3777 2.39148 16.6236C2.25323 16.7006 1.76673 16.9141 1.76236 17.4986C1.75798 18.0831 2.26198 18.3709 2.63736 18.3736C3.52548 18.3806 8.98374 18.3736 10.5124 18.3736C15.3231 18.3736 19.2624 14.8727 19.2624 10.4986C19.2624 6.12445 15.3231 2.62357 10.5124 2.62357ZM10.5124 4.37357C14.4 4.37357 17.5124 7.14032 17.5124 10.4986C17.5124 13.8568 14.4 16.6236 10.5124 16.6236C9.35037 16.6236 6.68336 16.6236 4.60611 16.6236C5.00774 15.7897 4.97799 14.4658 4.41449 13.5339C3.84924 12.5977 3.51236 11.5739 3.51236 10.4986C3.51236 7.14032 6.62474 4.37357 10.5124 4.37357Z" fill="white"/>
</svg>
