<svg width="21" height="21" viewBox="0 0 21 21" fill="none" xmlns="http://www.w3.org/2000/svg">
<path fill-rule="evenodd" clip-rule="evenodd" d="M0.0291779 9.50676C-0.273299 6.83784 1.81455 4.5 4.50055 4.5H15.7523C18.4383 4.5 20.5262 6.83784 20.2237 9.50676L19.4587 16.2568C19.2009 18.5314 17.2765 20.25 14.9873 20.25H5.26555C2.97635 20.25 1.05197 18.5314 0.794176 16.2568L0.0291779 9.50676ZM4.50055 6.75C3.15755 6.75 2.11363 7.91892 2.26487 9.25338L3.02986 16.0034C3.15876 17.1407 4.12095 18 5.26555 18H14.9873C16.1319 18 17.0941 17.1407 17.223 16.0034L17.988 9.25338C18.1393 7.91892 17.0953 6.75 15.7523 6.75H4.50055Z" fill="#B4B4B8"/>
<path fill-rule="evenodd" clip-rule="evenodd" d="M5.62646 4.5C5.62646 2.01472 7.64118 0 10.1265 0C12.6117 0 14.6265 2.01472 14.6265 4.5V7.875C14.6265 8.49632 14.1228 9 13.5015 9C12.8801 9 12.3765 8.49632 12.3765 7.875V4.5C12.3765 3.25736 11.3691 2.25 10.1265 2.25C8.88382 2.25 7.87646 3.25736 7.87646 4.5V7.875C7.87646 8.49632 7.37279 9 6.75146 9C6.13014 9 5.62646 8.49632 5.62646 7.875V4.5Z" fill="#B4B4B8"/>
</svg>
