<svg width="23" height="25" viewBox="0 0 23 25" fill="none" xmlns="http://www.w3.org/2000/svg">
<path fill-rule="evenodd" clip-rule="evenodd" d="M10.3725 0.159061C10.9383 -0.0530205 11.5617 -0.0530205 12.1275 0.159061L20.8775 3.44031C21.3541 3.61898 21.7649 3.93888 22.0548 4.35726C22.3447 4.77563 22.5001 5.27254 22.5 5.78156V12.4853C22.5 14.5746 21.9183 16.6226 20.8199 18.3999C19.7215 20.1771 18.15 21.6134 16.2812 22.5478L12.0887 24.6441C11.8283 24.7743 11.5412 24.8421 11.25 24.8421C10.9588 24.8421 10.6717 24.7743 10.4113 24.6441L6.21875 22.5478C4.35005 21.6134 2.77846 20.1771 1.68009 18.3999C0.581713 16.6226 -4.50396e-05 14.5746 1.93973e-08 12.4853V5.78156C-6.3373e-05 5.27254 0.155255 4.77563 0.445191 4.35726C0.735128 3.93888 1.14587 3.61898 1.6225 3.44031L10.3725 0.159061ZM11.25 2.50031L2.5 5.78156V12.4853C2.50029 14.1101 2.95299 15.7028 3.80739 17.0849C4.6618 18.4669 5.88415 19.5838 7.3375 20.3103L11.25 22.2691V2.50031Z" fill="url(#paint0_linear_603_196)"/>
<defs>
<linearGradient id="paint0_linear_603_196" x1="11.25" y1="0" x2="11.25" y2="24.8421" gradientUnits="userSpaceOnUse">
<stop stop-color="#346CBD"/>
</linearGradient>
</defs>
</svg>
