<svg width="30" height="30" viewBox="0 0 30 30" fill="none" xmlns="http://www.w3.org/2000/svg">
<path d="M7.5 18.75C7.5 18.0596 8.05964 17.5 8.75 17.5H13.75C14.4404 17.5 15 18.0596 15 18.75V18.75C15 19.4404 14.4404 20 13.75 20H8.75C8.05964 20 7.5 19.4404 7.5 18.75V18.75Z" fill="url(#paint0_linear_603_188)"/>
<path d="M2.5 11.25H27.5V13.75H2.5V11.25Z" fill="url(#paint1_linear_603_188)"/>
<path fill-rule="evenodd" clip-rule="evenodd" d="M9.69838 5H20.3016C21.3078 4.99998 22.1383 4.99997 22.8148 5.05524C23.5174 5.11265 24.1633 5.23586 24.77 5.54497C25.7108 6.02434 26.4757 6.78924 26.955 7.73005C27.2641 8.33672 27.3874 8.9826 27.4448 9.68522C27.5 10.3617 27.5 11.1921 27.5 12.1983V15C27.5 15.6904 26.9404 16.25 26.25 16.25C25.5596 16.25 25 15.6904 25 15V12.25C25 11.1793 24.999 10.4514 24.9531 9.8888C24.9083 9.34078 24.8271 9.06052 24.7275 8.86503C24.4878 8.39462 24.1054 8.01217 23.635 7.77248C23.4395 7.67287 23.1592 7.59172 22.6112 7.54694C22.0486 7.50097 21.3207 7.5 20.25 7.5H9.75C8.67928 7.5 7.95141 7.50097 7.3888 7.54694C6.84078 7.59172 6.56052 7.67287 6.36503 7.77248C5.89462 8.01217 5.51217 8.39462 5.27248 8.86503C5.17287 9.06052 5.09172 9.34078 5.04694 9.8888C5.00097 10.4514 5 11.1793 5 12.25V17.75C5 18.8207 5.00097 19.5486 5.04694 20.1112C5.09172 20.6592 5.17287 20.9395 5.27248 21.135C5.51217 21.6054 5.89462 21.9878 6.36503 22.2275C6.56052 22.3271 6.84078 22.4083 7.3888 22.4531C7.95141 22.499 8.67928 22.5 9.75 22.5H15C15.6904 22.5 16.25 23.0596 16.25 23.75C16.25 24.4404 15.6904 25 15 25H9.69841C8.69218 25 7.86172 25 7.18522 24.9448C6.4826 24.8874 5.83672 24.7641 5.23005 24.455C4.28924 23.9757 3.52434 23.2108 3.04497 22.27C2.73586 21.6633 2.61265 21.0174 2.55524 20.3148C2.49997 19.6383 2.49998 18.8078 2.5 17.8016V12.1984C2.49998 11.1922 2.49997 10.3617 2.55524 9.68522C2.61265 8.9826 2.73585 8.33672 3.04497 7.73005C3.52434 6.78924 4.28924 6.02434 5.23005 5.54497C5.83672 5.23586 6.4826 5.11265 7.18522 5.05524C7.86171 4.99997 8.69216 4.99998 9.69838 5Z" fill="url(#paint2_linear_603_188)"/>
<g clip-path="url(#clip0_603_188)">
<path fill-rule="evenodd" clip-rule="evenodd" d="M19.5832 23.7499C19.5832 21.4487 21.4487 19.5832 23.7499 19.5832C26.0511 19.5832 27.9166 21.4487 27.9166 23.7499C27.9166 23.8772 27.9143 24.3233 27.7805 24.7245C27.7145 24.9225 27.6283 25.0722 27.5283 25.1678C27.4406 25.2515 27.3248 25.3124 27.1353 25.3124C26.925 25.3124 26.8238 25.2547 26.7549 25.1842C26.6682 25.0956 26.5756 24.9265 26.5039 24.611C26.3573 23.9661 26.3541 22.9963 26.3541 21.6666C26.3541 21.3789 26.1209 21.1457 25.8332 21.1457C25.5456 21.1457 25.3125 21.3788 25.3124 21.6664C24.8772 21.3395 24.3362 21.1457 23.7499 21.1457C22.3117 21.1457 21.1457 22.3117 21.1457 23.7499C21.1457 25.1881 22.3117 26.3541 23.7499 26.3541C24.5278 26.3541 25.2261 26.0129 25.7033 25.4721C25.7836 25.634 25.8838 25.7834 26.0102 25.9126C26.3075 26.2164 26.6946 26.3541 27.1353 26.3541C27.5969 26.3541 27.9693 26.1871 28.2479 25.9209C28.5141 25.6666 28.672 25.3442 28.7687 25.0539C28.9584 24.4851 28.9583 23.8964 28.9582 23.7545V23.7499C28.9582 20.8734 26.6264 18.5416 23.7499 18.5416C20.8734 18.5416 18.5416 20.8734 18.5416 23.7499C18.5416 26.6264 20.8734 28.9582 23.7499 28.9582C24.5805 28.9582 25.367 28.7634 26.065 28.4166C26.3226 28.2885 26.4277 27.976 26.2996 27.7184C26.1716 27.4608 25.859 27.3557 25.6014 27.4837C25.0443 27.7606 24.416 27.9166 23.7499 27.9166C21.4487 27.9166 19.5832 26.0511 19.5832 23.7499ZM25.3124 23.7499C25.3124 24.6128 24.6128 25.3124 23.7499 25.3124C22.887 25.3124 22.1874 24.6128 22.1874 23.7499C22.1874 22.887 22.887 22.1874 23.7499 22.1874C24.6128 22.1874 25.3124 22.887 25.3124 23.7499Z" fill="url(#paint3_linear_603_188)" stroke="url(#paint4_linear_603_188)" stroke-width="0.5" stroke-linecap="round"/>
</g>
<defs>
<linearGradient id="paint0_linear_603_188" x1="11.25" y1="17.5" x2="11.25" y2="20" gradientUnits="userSpaceOnUse">
<stop stop-color="#346CBD"/>
</linearGradient>
<linearGradient id="paint1_linear_603_188" x1="15" y1="11.25" x2="15" y2="13.75" gradientUnits="userSpaceOnUse">
<stop stop-color="#346CBD"/>
</linearGradient>
<linearGradient id="paint2_linear_603_188" x1="15" y1="5" x2="15" y2="25" gradientUnits="userSpaceOnUse">
<stop stop-color="#346CBD"/>
</linearGradient>
<linearGradient id="paint3_linear_603_188" x1="23.7499" y1="18.5416" x2="23.7499" y2="28.9582" gradientUnits="userSpaceOnUse">
<stop stop-color="#346CBD"/>
</linearGradient>
<linearGradient id="paint4_linear_603_188" x1="23.7499" y1="18.5416" x2="23.7499" y2="28.9582" gradientUnits="userSpaceOnUse">
<stop stop-color="#346CBD"/>
</linearGradient>
<clipPath id="clip0_603_188">
<rect width="12.5" height="12.5" fill="white" transform="translate(17.4999 17.4999)"/>
</clipPath>
</defs>
</svg>
